<?xml version="1.0" ?><svg enable-background="new 0 0 32 32" version="1.1" viewBox="0 0 32 32" xml:space="preserve" xmlns="http://www.w3.org/2000/svg" xmlns:xlink="http://www.w3.org/1999/xlink"><g id="Outline_Color_copy_2"><path d="M28,1c1.654,0,3,1.346,3,3v24c0,1.654-1.346,3-3,3H4c-1.654,0-3-1.346-3-3V4c0-1.654,1.346-3,3-3H28 M28,0H4   C1.8,0,0,1.8,0,4v24c0,2.2,1.8,4,4,4h24c2.2,0,4-1.8,4-4V4C32,1.8,30.2,0,28,0L28,0z"/><path d="M22.869,6.841H9.131c-1.293,0-2.29,0.997-2.29,2.29v13.738c0,1.293,0.997,2.29,2.29,2.29h13.738   c1.293,0,2.29-0.997,2.29-2.29V9.131C25.159,7.838,24.162,6.841,22.869,6.841z M16.013,12.402c2.032,0,3.678,1.595,3.678,3.564   c0,1.967-1.646,3.564-3.678,3.564c-2.03,0-3.677-1.597-3.677-3.564C12.337,13.997,13.984,12.402,16.013,12.402z M22.869,22.297   c0,0.401-0.172,0.572-0.572,0.572H9.703c-0.4,0-0.572-0.171-0.572-0.572v-8.014l1.427,0.31c-0.153,0.498-0.236,1.025-0.236,1.571   c0,3.044,2.55,5.515,5.692,5.515c3.144,0,5.692-2.47,5.692-5.515c0-0.547-0.083-1.073-0.236-1.571l1.4-0.31V22.297z M22.869,11.993   c0,0.317-0.256,0.572-0.572,0.572h-2.29c-0.317,0-0.572-0.256-0.572-0.572v-2.29c0-0.317,0.256-0.572,0.572-0.572h2.29   c0.317,0,0.572,0.256,0.572,0.572V11.993z"/></g><!-- Code injected by live-server -->
<script>
	// <![CDATA[  <-- For SVG support
	if ('WebSocket' in window) {
		(function () {
			function refreshCSS() {
				var sheets = [].slice.call(document.getElementsByTagName("link"));
				var head = document.getElementsByTagName("head")[0];
				for (var i = 0; i < sheets.length; ++i) {
					var elem = sheets[i];
					var parent = elem.parentElement || head;
					parent.removeChild(elem);
					var rel = elem.rel;
					if (elem.href && typeof rel != "string" || rel.length == 0 || rel.toLowerCase() == "stylesheet") {
						var url = elem.href.replace(/(&|\?)_cacheOverride=\d+/, '');
						elem.href = url + (url.indexOf('?') >= 0 ? '&' : '?') + '_cacheOverride=' + (new Date().valueOf());
					}
					parent.appendChild(elem);
				}
			}
			var protocol = window.location.protocol === 'http:' ? 'ws://' : 'wss://';
			var address = protocol + window.location.host + window.location.pathname + '/ws';
			var socket = new WebSocket(address);
			socket.onmessage = function (msg) {
				if (msg.data == 'reload') window.location.reload();
				else if (msg.data == 'refreshcss') refreshCSS();
			};
			if (sessionStorage && !sessionStorage.getItem('IsThisFirstTime_Log_From_LiveServer')) {
				console.log('Live reload enabled.');
				sessionStorage.setItem('IsThisFirstTime_Log_From_LiveServer', true);
			}
		})();
	}
	else {
		console.error('Upgrade your browser. This Browser is NOT supported WebSocket for Live-Reloading.');
	}
	// ]]>
</script>
</svg>